<?xml version="1.0" encoding="utf-8"?><!-- Uploaded to: SVG Repo, www.svgrepo.com, Generator: SVG Repo Mixer Tools -->
<svg width="800px" height="800px" viewBox="0 0 24 24" fill="none" xmlns="http://www.w3.org/2000/svg">
<rect width="24" height="24" fill="white"/>
<path fill-rule="evenodd" clip-rule="evenodd" d="M11 13C11 13.5523 11.4477 14 12 14C12.5523 14 13 13.5523 13 13V8C13 7.44772 12.5523 7 12 7C11.4477 7 11 7.44772 11 8V13ZM13 15.9888C13 15.4365 12.5523 14.9888 12 14.9888C11.4477 14.9888 11 15.4365 11 15.9888V16C11 16.5523 11.4477 17 12 17C12.5523 17 13 16.5523 13 16V15.9888ZM7.25007 2.38782C8.54878 2.0992 10.1243 2 12 2C13.8757 2 15.4512 2.0992 16.7499 2.38782C18.06 2.67897 19.1488 3.176 19.9864 4.01358C20.824 4.85116 21.321 5.94002 21.6122 7.25007C21.9008 8.54878 22 10.1243 22 12C22 13.8757 21.9008 15.4512 21.6122 16.7499C21.321 18.06 20.824 19.1488 19.9864 19.9864C19.1488 20.824 18.06 21.321 16.7499 21.6122C15.4512 21.9008 13.8757 22 12 22C10.1243 22 8.54878 21.9008 7.25007 21.6122C5.94002 21.321 4.85116 20.824 4.01358 19.9864C3.176 19.1488 2.67897 18.06 2.38782 16.7499C2.0992 15.4512 2 13.8757 2 12C2 10.1243 2.0992 8.54878 2.38782 7.25007C2.67897 5.94002 3.176 4.85116 4.01358 4.01358C4.85116 3.176 5.94002 2.67897 7.25007 2.38782Z" fill="#323232"/>
</svg>